<svg id="Capa_1" data-name="Capa 1" xmlns="http://www.w3.org/2000/svg" viewBox="0 0 202.94 291.42">
  <defs>
    <style>
      .cls-1 {
        fill: #f2f2f2;
      }
    </style>
  </defs>
  <title>logo</title>
  <g>
    <g>
      <g>
        <path class="cls-1" d="M15.66,282.35a9.71,9.71,0,0,1-3-.44,6.06,6.06,0,0,1-2.18-1.21A6,6,0,0,1,9,278.79a9.28,9.28,0,0,1-.76-2.46,18.2,18.2,0,0,1-.22-3v-9.32A18.82,18.82,0,0,1,8.28,261a9.79,9.79,0,0,1,.76-2.5,5.49,5.49,0,0,1,1.39-1.89,6.18,6.18,0,0,1,2.18-1.16,10.07,10.07,0,0,1,3.05-.42,9.76,9.76,0,0,1,3.42.53,5.06,5.06,0,0,1,2.24,1.56,6.55,6.55,0,0,1,1.19,2.41,12.44,12.44,0,0,1,.37,3.21V265H18.19v-2.27A11.14,11.14,0,0,0,18,260a2,2,0,0,0-2-1.45H15.67a3.57,3.57,0,0,0-1.07.15,1.68,1.68,0,0,0-.75.46,2.91,2.91,0,0,0-.47.67,3.18,3.18,0,0,0-.27.93,10.31,10.31,0,0,0-.11,1.06q0,0.48,0,1.23v11.31a7,7,0,0,0,.59,3.35,2.23,2.23,0,0,0,2.1,1,3.1,3.1,0,0,0,.91-0.12,2.33,2.33,0,0,0,.66-0.31,1.47,1.47,0,0,0,.45-0.53,4,4,0,0,0,.28-0.64,4,4,0,0,0,.15-0.83q0-.53.06-0.9c0-.25,0-0.58,0-1V272h4.69v2.19a15.65,15.65,0,0,1-.21,2.69,8.47,8.47,0,0,1-.72,2.24,5.32,5.32,0,0,1-1.31,1.74A5.79,5.79,0,0,1,18.58,282,9.77,9.77,0,0,1,15.66,282.35Z" transform="translate(-7.44 -6.74)"/>
        <path class="cls-1" d="M33.52,282.35q-4.13,0-5.92-2.24t-1.79-6.56v-9.86a14.92,14.92,0,0,1,.4-3.69,7.29,7.29,0,0,1,1.3-2.71,5.41,5.41,0,0,1,2.39-1.72,10.15,10.15,0,0,1,3.61-.57q4.11,0,5.91,2.21t1.8,6.48v9.86a14.78,14.78,0,0,1-.41,3.68A7.62,7.62,0,0,1,39.51,280a5.49,5.49,0,0,1-2.39,1.76A9.72,9.72,0,0,1,33.52,282.35Zm-1.22-3.82a3.18,3.18,0,0,0,1.22.21,3.12,3.12,0,0,0,1.21-.21,2.15,2.15,0,0,0,.8-0.55,2.39,2.39,0,0,0,.47-0.89,5.71,5.71,0,0,0,.23-1.1,13,13,0,0,0,.06-1.31V262.55a11.16,11.16,0,0,0-.1-1.61,4.11,4.11,0,0,0-.38-1.22,1.83,1.83,0,0,0-.85-0.85,3.2,3.2,0,0,0-1.43-.28,3.25,3.25,0,0,0-1.44.28,1.78,1.78,0,0,0-.85.85,4.25,4.25,0,0,0-.37,1.22,11.08,11.08,0,0,0-.1,1.61v12.14a13,13,0,0,0,.06,1.31,5.68,5.68,0,0,0,.23,1.1,2.46,2.46,0,0,0,.46.89A2.06,2.06,0,0,0,32.3,278.53Z" transform="translate(-7.44 -6.74)"/>
        <path class="cls-1" d="M44.78,282V255.3h3.35l6.54,15.14V255.3h4V282H55.52l-6.61-15.91V282H44.78Z" transform="translate(-7.44 -6.74)"/>
        <path class="cls-1" d="M69.45,282.35q-7.06,0-7.41-8.16l4.24-.89q0.16,5.3,3,5.3a2,2,0,0,0,1.65-.68,2.84,2.84,0,0,0,.54-1.82,5.05,5.05,0,0,0-.4-2,5.52,5.52,0,0,0-.94-1.52,19.66,19.66,0,0,0-1.52-1.46l-3.51-3a9.83,9.83,0,0,1-2.31-2.81,7.88,7.88,0,0,1-.76-3.65,6.32,6.32,0,0,1,1.83-4.84,7.14,7.14,0,0,1,5-1.76,7.86,7.86,0,0,1,2.59.36,5.45,5.45,0,0,1,1.86,1A5.31,5.31,0,0,1,74.6,258a8.61,8.61,0,0,1,.73,2,14.94,14.94,0,0,1,.34,2.28l-4.16.82q0-.81-0.1-1.4a7.68,7.68,0,0,0-.25-1.21,3.09,3.09,0,0,0-.46-1,2,2,0,0,0-.76-0.6,2.15,2.15,0,0,0-1.1-.18,2.27,2.27,0,0,0-1.65.72,2.55,2.55,0,0,0-.57,1.75,4,4,0,0,0,.51,2.12A8.16,8.16,0,0,0,68.7,265l3.48,3a18.42,18.42,0,0,1,1.52,1.53,13,13,0,0,1,1.23,1.69,7.77,7.77,0,0,1,.89,2.1,9.31,9.31,0,0,1,.31,2.42,6.37,6.37,0,0,1-1.85,4.74A6.6,6.6,0,0,1,69.45,282.35Z" transform="translate(-7.44 -6.74)"/>
        <path class="cls-1" d="M81.6,282V258.9H77.12V255.3H90.8v3.59H86.47V282H81.6Z" transform="translate(-7.44 -6.74)"/>
        <path class="cls-1" d="M92.93,282V255.3h6.13a16.45,16.45,0,0,1,3.63.35,7.14,7.14,0,0,1,2.64,1.16A4.9,4.9,0,0,1,107,259a9.22,9.22,0,0,1,.56,3.41,9.7,9.7,0,0,1-.75,4.11,4.58,4.58,0,0,1-2.47,2.32L108,282h-4.88L100,269.82H97.8V282H92.93Zm4.87-15.31H99a4.22,4.22,0,0,0,3.07-.92,4.39,4.39,0,0,0,.91-3.14,4.73,4.73,0,0,0-.79-3.07,3.69,3.69,0,0,0-2.9-.93H97.8v8.06Z" transform="translate(-7.44 -6.74)"/>
        <path class="cls-1" d="M118.56,282.35a10.25,10.25,0,0,1-3.1-.42,5.86,5.86,0,0,1-2.16-1.18,5.43,5.43,0,0,1-1.35-1.94,10.24,10.24,0,0,1-.71-2.56,22.31,22.31,0,0,1-.2-3.2V255.3h4.72v18.25q0,0.93,0,1.6a9.68,9.68,0,0,0,.21,1.39,3.32,3.32,0,0,0,.46,1.16,2.36,2.36,0,0,0,.82.73,2.91,2.91,0,0,0,2.53,0,2.21,2.21,0,0,0,.81-0.73,3.68,3.68,0,0,0,.45-1.16,8.36,8.36,0,0,0,.21-1.38q0-.65,0-1.6V255.3h4.72V273a22.39,22.39,0,0,1-.2,3.2,10.24,10.24,0,0,1-.71,2.56,5.48,5.48,0,0,1-1.35,1.94,5.78,5.78,0,0,1-2.15,1.18A10.19,10.19,0,0,1,118.56,282.35Z" transform="translate(-7.44 -6.74)"/>
        <path class="cls-1" d="M137,282.35a9.71,9.71,0,0,1-3-.44,6.06,6.06,0,0,1-2.18-1.21,6,6,0,0,1-1.4-1.92,9.28,9.28,0,0,1-.76-2.46,18.2,18.2,0,0,1-.22-3v-9.32a18.82,18.82,0,0,1,.23-3.09,9.79,9.79,0,0,1,.76-2.5,5.49,5.49,0,0,1,1.39-1.89,6.18,6.18,0,0,1,2.18-1.16A10.07,10.07,0,0,1,137,255a9.76,9.76,0,0,1,3.42.53,5.06,5.06,0,0,1,2.24,1.56,6.55,6.55,0,0,1,1.19,2.41,12.44,12.44,0,0,1,.37,3.21V265h-4.69v-2.27a11.14,11.14,0,0,0-.21-2.69,2,2,0,0,0-2-1.45H137a3.57,3.57,0,0,0-1.07.15,1.68,1.68,0,0,0-.75.46,2.91,2.91,0,0,0-.47.67,3.18,3.18,0,0,0-.27.93,10.31,10.31,0,0,0-.11,1.06q0,0.48,0,1.23v11.31a7,7,0,0,0,.59,3.35,2.23,2.23,0,0,0,2.1,1,3.1,3.1,0,0,0,.91-0.12,2.33,2.33,0,0,0,.66-0.31,1.47,1.47,0,0,0,.45-0.53,4,4,0,0,0,.28-0.64,4,4,0,0,0,.15-0.83q0-.53.06-0.9c0-.25,0-0.58,0-1V272h4.69v2.19a15.65,15.65,0,0,1-.21,2.69,8.47,8.47,0,0,1-.72,2.24,5.32,5.32,0,0,1-1.31,1.74,5.79,5.79,0,0,1-2.06,1.09A9.77,9.77,0,0,1,137,282.35Z" transform="translate(-7.44 -6.74)"/>
        <path class="cls-1" d="M154.78,282.35a9.71,9.71,0,0,1-3-.44,6.06,6.06,0,0,1-2.18-1.21,6,6,0,0,1-1.4-1.92,9.28,9.28,0,0,1-.76-2.46,18.2,18.2,0,0,1-.22-3v-9.32a18.82,18.82,0,0,1,.23-3.09,9.79,9.79,0,0,1,.76-2.5,5.49,5.49,0,0,1,1.39-1.89,6.18,6.18,0,0,1,2.18-1.16,10.07,10.07,0,0,1,3.05-.42,9.76,9.76,0,0,1,3.42.53,5.06,5.06,0,0,1,2.24,1.56,6.55,6.55,0,0,1,1.19,2.41,12.44,12.44,0,0,1,.37,3.21V265h-4.69v-2.27a11.14,11.14,0,0,0-.21-2.69,2,2,0,0,0-2-1.45h-0.26a3.57,3.57,0,0,0-1.07.15,1.68,1.68,0,0,0-.75.46,2.91,2.91,0,0,0-.47.67,3.18,3.18,0,0,0-.27.93,10.31,10.31,0,0,0-.11,1.06q0,0.48,0,1.23v11.31a7,7,0,0,0,.59,3.35,2.23,2.23,0,0,0,2.1,1,3.1,3.1,0,0,0,.91-0.12,2.33,2.33,0,0,0,.66-0.31,1.47,1.47,0,0,0,.45-0.53,4,4,0,0,0,.28-0.64,4,4,0,0,0,.15-0.83q0-.53.06-0.9c0-.25,0-0.58,0-1V272H162v2.19a15.65,15.65,0,0,1-.21,2.69,8.47,8.47,0,0,1-.72,2.24,5.32,5.32,0,0,1-1.31,1.74A5.79,5.79,0,0,1,157.7,282,9.77,9.77,0,0,1,154.78,282.35Z" transform="translate(-7.44 -6.74)"/>
        <path class="cls-1" d="M165.51,282V255.3h4.8V282h-4.8Z" transform="translate(-7.44 -6.74)"/>
        <path class="cls-1" d="M181.7,282.35q-4.13,0-5.92-2.24T174,273.55v-9.86a14.87,14.87,0,0,1,.4-3.69,7.3,7.3,0,0,1,1.3-2.71,5.41,5.41,0,0,1,2.39-1.72,10.16,10.16,0,0,1,3.61-.57q4.11,0,5.91,2.21t1.8,6.48v9.86a14.76,14.76,0,0,1-.41,3.68,7.6,7.6,0,0,1-1.31,2.76,5.49,5.49,0,0,1-2.39,1.76A9.72,9.72,0,0,1,181.7,282.35Zm-1.22-3.82a3.19,3.19,0,0,0,1.22.21,3.13,3.13,0,0,0,1.21-.21,2.15,2.15,0,0,0,.8-0.55,2.38,2.38,0,0,0,.47-0.89,5.6,5.6,0,0,0,.23-1.1,12.84,12.84,0,0,0,.06-1.31V262.55a11.16,11.16,0,0,0-.1-1.61,4.1,4.1,0,0,0-.38-1.22,1.83,1.83,0,0,0-.85-0.85,3.2,3.2,0,0,0-1.43-.28,3.25,3.25,0,0,0-1.44.28,1.79,1.79,0,0,0-.85.85,4.26,4.26,0,0,0-.37,1.22,11.16,11.16,0,0,0-.1,1.61v12.14A12.84,12.84,0,0,0,179,276a5.68,5.68,0,0,0,.23,1.1,2.46,2.46,0,0,0,.46.89A2.08,2.08,0,0,0,180.48,278.53ZM180.42,253l2-6.59H187L183,253h-2.56Z" transform="translate(-7.44 -6.74)"/>
        <path class="cls-1" d="M193,282V255.3h3.35l6.54,15.14V255.3h4V282H203.7l-6.61-15.91V282H193Z" transform="translate(-7.44 -6.74)"/>
      </g>
      <g>
        <path class="cls-1" d="M11.06,298.16A3.18,3.18,0,0,1,10,298a2.11,2.11,0,0,1-.76-0.45,2.15,2.15,0,0,1-.48-0.71,3.62,3.62,0,0,1-.25-0.89,7.12,7.12,0,0,1-.07-1v-4.15a7.22,7.22,0,0,1,.07-1.08,3.49,3.49,0,0,1,.26-0.89,2.1,2.1,0,0,1,.48-0.7,2.07,2.07,0,0,1,.76-0.43,3.34,3.34,0,0,1,1.07-.16,3,3,0,0,1,1.17.21,1.75,1.75,0,0,1,.77.6,2.63,2.63,0,0,1,.41.93,5.39,5.39,0,0,1,.13,1.23v0.64H12.6v-0.61a6.31,6.31,0,0,0-.06-0.92,2.22,2.22,0,0,0-.22-0.68,1,1,0,0,0-.47-0.46,1.84,1.84,0,0,0-.79-0.15,2,2,0,0,0-.85.16,1.09,1.09,0,0,0-.51.5,2.45,2.45,0,0,0-.23.73,6.26,6.26,0,0,0-.06,1V295a3.32,3.32,0,0,0,.36,1.77,1.43,1.43,0,0,0,1.29.55,1.77,1.77,0,0,0,.66-0.11,1.18,1.18,0,0,0,.44-0.29,1.31,1.31,0,0,0,.26-0.48,3.08,3.08,0,0,0,.13-0.62,7.16,7.16,0,0,0,0-.76v-0.68h0.93V295a6.93,6.93,0,0,1-.07,1,3.49,3.49,0,0,1-.24.86,2,2,0,0,1-.45.67,1.93,1.93,0,0,1-.71.42A3,3,0,0,1,11.06,298.16Z" transform="translate(-7.44 -6.74)"/>
        <path class="cls-1" d="M20.1,298.16a3.24,3.24,0,0,1-1.29-.23,1.87,1.87,0,0,1-.83-0.67,3,3,0,0,1-.43-1,5.76,5.76,0,0,1-.13-1.31v-4.33a5.46,5.46,0,0,1,.14-1.29,2.79,2.79,0,0,1,.44-1,1.89,1.89,0,0,1,.83-0.64,3.77,3.77,0,0,1,2.54,0,1.88,1.88,0,0,1,.83.65,2.83,2.83,0,0,1,.44,1,5.44,5.44,0,0,1,.14,1.28V295A6.5,6.5,0,0,1,22.7,296a3.38,3.38,0,0,1-.27.88,2.14,2.14,0,0,1-.49.68,2.11,2.11,0,0,1-.77.43A3.38,3.38,0,0,1,20.1,298.16Zm-0.84-.95a2.38,2.38,0,0,0,1.69,0,1.12,1.12,0,0,0,.52-0.46,2.17,2.17,0,0,0,.25-0.69,4.88,4.88,0,0,0,.07-0.91v-4.72a4.84,4.84,0,0,0-.07-0.9,2.09,2.09,0,0,0-.25-0.68,1.09,1.09,0,0,0-.52-0.45,2.47,2.47,0,0,0-1.69,0,1.09,1.09,0,0,0-.52.45,2.08,2.08,0,0,0-.25.68,4.83,4.83,0,0,0-.07.9v4.72a4.88,4.88,0,0,0,.07.91,2.16,2.16,0,0,0,.25.69A1.12,1.12,0,0,0,19.26,297.21Z" transform="translate(-7.44 -6.74)"/>
        <path class="cls-1" d="M27,298V287.59h0.72l3.32,8.1v-8.1h0.84V298H31.16l-3.35-8.19V298H27Z" transform="translate(-7.44 -6.74)"/>
        <path class="cls-1" d="M43.89,298.16a3.18,3.18,0,0,1-1.09-.17,2.11,2.11,0,0,1-.76-0.45,2.15,2.15,0,0,1-.48-0.71,3.62,3.62,0,0,1-.25-0.89,7.12,7.12,0,0,1-.07-1v-4.15a7.22,7.22,0,0,1,.07-1.08,3.49,3.49,0,0,1,.26-0.89,2.1,2.1,0,0,1,.48-0.7,2.07,2.07,0,0,1,.76-0.43,3.34,3.34,0,0,1,1.07-.16,3,3,0,0,1,1.17.21,1.75,1.75,0,0,1,.77.6,2.63,2.63,0,0,1,.41.93,5.39,5.39,0,0,1,.13,1.23v0.64H45.43v-0.61a6.31,6.31,0,0,0-.06-0.92,2.22,2.22,0,0,0-.22-0.68,1,1,0,0,0-.47-0.46,1.84,1.84,0,0,0-.79-0.15,2,2,0,0,0-.85.16,1.09,1.09,0,0,0-.51.5,2.45,2.45,0,0,0-.23.73,6.26,6.26,0,0,0-.06,1V295a3.32,3.32,0,0,0,.36,1.77,1.43,1.43,0,0,0,1.29.55,1.77,1.77,0,0,0,.66-0.11A1.18,1.18,0,0,0,45,297a1.31,1.31,0,0,0,.26-0.48,3.08,3.08,0,0,0,.13-0.62,7.16,7.16,0,0,0,0-.76v-0.68h0.93V295a6.93,6.93,0,0,1-.07,1,3.49,3.49,0,0,1-.24.86,2,2,0,0,1-.45.67,1.93,1.93,0,0,1-.71.42A3,3,0,0,1,43.89,298.16Z" transform="translate(-7.44 -6.74)"/>
        <path class="cls-1" d="M52.93,298.16a3.24,3.24,0,0,1-1.29-.23,1.87,1.87,0,0,1-.83-0.67,3,3,0,0,1-.43-1,5.76,5.76,0,0,1-.13-1.31v-4.33a5.46,5.46,0,0,1,.14-1.29,2.79,2.79,0,0,1,.44-1,1.89,1.89,0,0,1,.83-0.64,3.77,3.77,0,0,1,2.54,0,1.88,1.88,0,0,1,.83.65,2.83,2.83,0,0,1,.44,1,5.44,5.44,0,0,1,.14,1.28V295a6.5,6.5,0,0,1-.08,1.06,3.38,3.38,0,0,1-.27.88,2.14,2.14,0,0,1-.49.68A2.11,2.11,0,0,1,54,298,3.38,3.38,0,0,1,52.93,298.16Zm-0.84-.95a2.38,2.38,0,0,0,1.69,0,1.12,1.12,0,0,0,.52-0.46,2.17,2.17,0,0,0,.25-0.69,4.88,4.88,0,0,0,.07-0.91v-4.72a4.84,4.84,0,0,0-.07-0.9,2.09,2.09,0,0,0-.25-0.68,1.09,1.09,0,0,0-.52-0.45,2.47,2.47,0,0,0-1.69,0,1.09,1.09,0,0,0-.52.45,2.08,2.08,0,0,0-.25.68,4.83,4.83,0,0,0-.07.9v4.72a4.88,4.88,0,0,0,.07.91,2.16,2.16,0,0,0,.25.69A1.12,1.12,0,0,0,52.09,297.21Z" transform="translate(-7.44 -6.74)"/>
        <path class="cls-1" d="M59.8,298V287.59h0.72l3.32,8.1v-8.1h0.84V298H64l-3.35-8.19V298H59.8Z" transform="translate(-7.44 -6.74)"/>
        <path class="cls-1" d="M71.31,298.15a2.34,2.34,0,0,1-1.88-.75,3.53,3.53,0,0,1-.74-2.09l0.88-.25c0,0.28.07,0.52,0.11,0.73a3.36,3.36,0,0,0,.2.62,1.65,1.65,0,0,0,.31.5,1.37,1.37,0,0,0,.47.31,1.69,1.69,0,0,0,.66.12,1.32,1.32,0,0,0,1.47-1.51,2.23,2.23,0,0,0-.08-0.63,2.1,2.1,0,0,0-.27-0.57,4.39,4.39,0,0,0-.39-0.51q-0.21-.23-0.53-0.55l-1.85-1.78a2.83,2.83,0,0,1-.94-2.1,2.13,2.13,0,0,1,.63-1.65,2.44,2.44,0,0,1,1.71-.59h0a2.33,2.33,0,0,1,1.74.62,3.16,3.16,0,0,1,.72,2l-0.83.21a3.31,3.31,0,0,0-.45-1.59,1.29,1.29,0,0,0-1.13-.5H71.08a1.67,1.67,0,0,0-1.08.36,1.28,1.28,0,0,0-.39,1,1.78,1.78,0,0,0,.17.78,2.68,2.68,0,0,0,.57.74l1.84,1.74a6.45,6.45,0,0,1,1.12,1.38,2.92,2.92,0,0,1,.41,1.51,2.29,2.29,0,0,1-.66,1.76A2.44,2.44,0,0,1,71.31,298.15Z" transform="translate(-7.44 -6.74)"/>
        <path class="cls-1" d="M78.71,298v-9.68h-2.1v-0.76h5.13v0.76h-2V298h-1Z" transform="translate(-7.44 -6.74)"/>
        <path class="cls-1" d="M85.17,298V287.59h2.37a2.55,2.55,0,0,1,2,.67,2.87,2.87,0,0,1,.6,2q0,2.16-1.45,2.46L90.29,298h-1l-1.53-5.13H86.16V298h-1Zm1-5.85h1.33a1.6,1.6,0,0,0,1.32-.46,3.16,3.16,0,0,0,0-2.94,1.58,1.58,0,0,0-1.3-.45H86.16v3.85Z" transform="translate(-7.44 -6.74)"/>
        <path class="cls-1" d="M96.91,298.16a3.74,3.74,0,0,1-1.09-.14,2.11,2.11,0,0,1-.77-0.4,1.91,1.91,0,0,1-.48-0.64,3.09,3.09,0,0,1-.25-0.82,6,6,0,0,1-.07-1v-7.58h1v7.62a4.91,4.91,0,0,0,0,.7,2.51,2.51,0,0,0,.16.59,1.36,1.36,0,0,0,.3.47,1.34,1.34,0,0,0,.5.29,2.11,2.11,0,0,0,.72.11,2,2,0,0,0,.83-0.16,1.2,1.2,0,0,0,.53-0.47,2.21,2.21,0,0,0,.27-0.68,4,4,0,0,0,.08-0.86v-7.62h0.94v7.58a5.78,5.78,0,0,1-.08,1,3,3,0,0,1-.26.82,2,2,0,0,1-.49.64,2.15,2.15,0,0,1-.76.4A3.57,3.57,0,0,1,96.91,298.16Z" transform="translate(-7.44 -6.74)"/>
        <path class="cls-1" d="M106.29,298.16a3.18,3.18,0,0,1-1.09-.17,2.11,2.11,0,0,1-.76-0.45,2.15,2.15,0,0,1-.48-0.71,3.62,3.62,0,0,1-.25-0.89,7.12,7.12,0,0,1-.07-1v-4.15a7.22,7.22,0,0,1,.07-1.08,3.49,3.49,0,0,1,.26-0.89,2.1,2.1,0,0,1,.48-0.7,2.07,2.07,0,0,1,.76-0.43,3.34,3.34,0,0,1,1.07-.16,3,3,0,0,1,1.17.21,1.75,1.75,0,0,1,.77.6,2.63,2.63,0,0,1,.41.93,5.39,5.39,0,0,1,.13,1.23v0.64h-0.93v-0.61a6.31,6.31,0,0,0-.06-0.92,2.22,2.22,0,0,0-.22-0.68,1,1,0,0,0-.47-0.46,1.84,1.84,0,0,0-.79-0.15,2,2,0,0,0-.85.16,1.09,1.09,0,0,0-.51.5,2.45,2.45,0,0,0-.23.73,6.26,6.26,0,0,0-.06,1V295a3.32,3.32,0,0,0,.36,1.77,1.43,1.43,0,0,0,1.29.55,1.77,1.77,0,0,0,.66-0.11,1.18,1.18,0,0,0,.44-0.29,1.31,1.31,0,0,0,.26-0.48,3.08,3.08,0,0,0,.13-0.62,7.16,7.16,0,0,0,0-.76v-0.68h0.93V295a6.93,6.93,0,0,1-.07,1,3.49,3.49,0,0,1-.24.86,2,2,0,0,1-.45.67,1.93,1.93,0,0,1-.71.42A3,3,0,0,1,106.29,298.16Z" transform="translate(-7.44 -6.74)"/>
        <path class="cls-1" d="M119.19,298v-9.68h-2.1v-0.76h5.13v0.76h-2V298h-1Z" transform="translate(-7.44 -6.74)"/>
        <path class="cls-1" d="M128.12,298.16a3.24,3.24,0,0,1-1.29-.23,1.87,1.87,0,0,1-.83-0.67,3,3,0,0,1-.43-1,5.76,5.76,0,0,1-.13-1.31v-4.33a5.46,5.46,0,0,1,.14-1.29,2.79,2.79,0,0,1,.44-1,1.89,1.89,0,0,1,.83-0.64,3.77,3.77,0,0,1,2.54,0,1.88,1.88,0,0,1,.83.65,2.83,2.83,0,0,1,.44,1,5.44,5.44,0,0,1,.14,1.28V295a6.5,6.5,0,0,1-.08,1.06,3.38,3.38,0,0,1-.27.88,2.14,2.14,0,0,1-.49.68,2.11,2.11,0,0,1-.77.43A3.38,3.38,0,0,1,128.12,298.16Zm-0.84-.95a2.38,2.38,0,0,0,1.69,0,1.12,1.12,0,0,0,.52-0.46,2.17,2.17,0,0,0,.25-0.69,4.88,4.88,0,0,0,.07-0.91v-4.72a4.84,4.84,0,0,0-.07-0.9,2.09,2.09,0,0,0-.25-0.68,1.09,1.09,0,0,0-.52-0.45,2.47,2.47,0,0,0-1.69,0,1.09,1.09,0,0,0-.52.45,2.08,2.08,0,0,0-.25.68,4.83,4.83,0,0,0-.07.9v4.72a4.88,4.88,0,0,0,.07.91,2.16,2.16,0,0,0,.25.69A1.12,1.12,0,0,0,127.27,297.21Z" transform="translate(-7.44 -6.74)"/>
        <path class="cls-1" d="M135,298V287.59h2.28a4,4,0,0,1,1.12.14,2.35,2.35,0,0,1,.81.4,2,2,0,0,1,.52.65,3.05,3.05,0,0,1,.29.84,5.61,5.61,0,0,1,.08,1v4.15a5.71,5.71,0,0,1-.14,1.33,2.83,2.83,0,0,1-.45,1,2,2,0,0,1-.85.66,3.4,3.4,0,0,1-1.31.22H135Zm1-.74h1.32a2.19,2.19,0,0,0,.82-0.14,1.41,1.41,0,0,0,.53-0.35,1.45,1.45,0,0,0,.3-0.58,3.54,3.54,0,0,0,.14-0.71c0-.23,0-0.52,0-0.87v-3.9a7.58,7.58,0,0,0,0-.86,2.81,2.81,0,0,0-.16-0.66,1.25,1.25,0,0,0-.32-0.5,1.43,1.43,0,0,0-.54-0.29,2.65,2.65,0,0,0-.79-0.1H136v8.94Z" transform="translate(-7.44 -6.74)"/>
        <path class="cls-1" d="M146.75,298.16a3.24,3.24,0,0,1-1.29-.23,1.87,1.87,0,0,1-.83-0.67,3,3,0,0,1-.43-1,5.76,5.76,0,0,1-.13-1.31v-4.33a5.46,5.46,0,0,1,.14-1.29,2.79,2.79,0,0,1,.44-1,1.89,1.89,0,0,1,.83-0.64,3.77,3.77,0,0,1,2.54,0,1.88,1.88,0,0,1,.83.65,2.83,2.83,0,0,1,.44,1,5.44,5.44,0,0,1,.14,1.28V295a6.5,6.5,0,0,1-.08,1.06,3.38,3.38,0,0,1-.27.88,2.14,2.14,0,0,1-.49.68,2.11,2.11,0,0,1-.77.43A3.38,3.38,0,0,1,146.75,298.16Zm-0.84-.95a2.38,2.38,0,0,0,1.69,0,1.12,1.12,0,0,0,.52-0.46,2.17,2.17,0,0,0,.25-0.69,4.88,4.88,0,0,0,.07-0.91v-4.72a4.84,4.84,0,0,0-.07-0.9,2.09,2.09,0,0,0-.25-0.68,1.09,1.09,0,0,0-.52-0.45,2.47,2.47,0,0,0-1.69,0,1.09,1.09,0,0,0-.52.45,2.08,2.08,0,0,0-.25.68,4.83,4.83,0,0,0-.07.9v4.72a4.88,4.88,0,0,0,.07.91,2.16,2.16,0,0,0,.25.69A1.12,1.12,0,0,0,145.91,297.21Z" transform="translate(-7.44 -6.74)"/>
        <path class="cls-1" d="M155.85,298.15a2.34,2.34,0,0,1-1.88-.75,3.53,3.53,0,0,1-.74-2.09l0.88-.25c0,0.28.07,0.52,0.11,0.73a3.36,3.36,0,0,0,.2.62,1.65,1.65,0,0,0,.31.5,1.37,1.37,0,0,0,.47.31,1.69,1.69,0,0,0,.66.12,1.32,1.32,0,0,0,1.47-1.51,2.23,2.23,0,0,0-.08-0.63,2.1,2.1,0,0,0-.27-0.57,4.39,4.39,0,0,0-.39-0.51q-0.21-.23-0.53-0.55l-1.85-1.78a2.83,2.83,0,0,1-.94-2.1,2.13,2.13,0,0,1,.63-1.65,2.44,2.44,0,0,1,1.71-.59h0a2.33,2.33,0,0,1,1.74.62,3.16,3.16,0,0,1,.72,2l-0.83.21a3.31,3.31,0,0,0-.45-1.59,1.29,1.29,0,0,0-1.13-.5h-0.08a1.67,1.67,0,0,0-1.08.36,1.28,1.28,0,0,0-.39,1,1.78,1.78,0,0,0,.17.78,2.68,2.68,0,0,0,.57.74l1.84,1.74a6.45,6.45,0,0,1,1.12,1.38,2.92,2.92,0,0,1,.41,1.51,2.29,2.29,0,0,1-.66,1.76A2.44,2.44,0,0,1,155.85,298.15Z" transform="translate(-7.44 -6.74)"/>
        <path class="cls-1" d="M169.7,298.16a3,3,0,0,1-1.23-.23,1.83,1.83,0,0,1-.8-0.68,3.09,3.09,0,0,1-.42-1,6.56,6.56,0,0,1-.13-1.37v-4.08a6.67,6.67,0,0,1,.12-1.37,3,3,0,0,1,.41-1,1.79,1.79,0,0,1,.82-0.67,3.24,3.24,0,0,1,1.29-.23,2.31,2.31,0,0,1,1.94.75,3.62,3.62,0,0,1,.59,2.25v0.37h-0.93v-0.37a3.28,3.28,0,0,0-.33-1.7,1.37,1.37,0,0,0-1.25-.53,1.92,1.92,0,0,0-.72.12,1.29,1.29,0,0,0-.48.32,1.4,1.4,0,0,0-.28.52,3.26,3.26,0,0,0-.14.66,7.88,7.88,0,0,0,0,.79V295a6.12,6.12,0,0,0,.07,1,2.28,2.28,0,0,0,.25.74,1.13,1.13,0,0,0,.52.48,2,2,0,0,0,.83.16,1.36,1.36,0,0,0,1.27-.6,3.68,3.68,0,0,0,.36-1.83V293.7h-1.54V293h2.44v5H171.7l-0.12-1.18A1.8,1.8,0,0,1,169.7,298.16Z" transform="translate(-7.44 -6.74)"/>
        <path class="cls-1" d="M176,298l2.2-10.44h1L181.5,298h-1L180,295.24h-2.49L177,298h-1Zm1.62-3.51h2.22l-1.11-5.63Z" transform="translate(-7.44 -6.74)"/>
        <path class="cls-1" d="M185.33,298V287.59h0.72l3.32,8.1v-8.1h0.84V298h-0.69l-3.35-8.19V298h-0.85Z" transform="translate(-7.44 -6.74)"/>
        <path class="cls-1" d="M194.06,298l2.2-10.44h1L199.51,298h-1L198,295.24h-2.49L195,298h-1Zm1.62-3.51h2.22l-1.11-5.63Z" transform="translate(-7.44 -6.74)"/>
        <path class="cls-1" d="M203.34,298V287.59h0.72l3.32,8.1v-8.1h0.84V298h-0.69l-3.35-8.19V298h-0.85Z" transform="translate(-7.44 -6.74)"/>
      </g>
    </g>
    <g>
      <polygon class="cls-1" points="119.15 30.62 119.15 10.21 101.47 0 83.79 10.21 83.79 30.62 101.47 40.83 119.15 30.62"/>
      <polygon class="cls-1" points="161.44 55.04 161.44 34.62 143.76 24.41 126.08 34.62 126.08 55.04 143.76 65.24 161.44 55.04"/>
      <polygon class="cls-1" points="202.94 79 202.94 58.58 185.26 48.38 167.58 58.58 167.58 79 185.26 89.21 202.94 79"/>
      <polygon class="cls-1" points="202.94 127.38 202.94 106.96 185.26 96.75 167.58 106.96 167.58 127.38 185.26 137.58 202.94 127.38"/>
      <polygon class="cls-1" points="157.24 101.9 157.24 86.34 143.76 78.56 130.28 86.34 130.28 101.9 143.76 109.68 157.24 101.9"/>
      <polygon class="cls-1" points="157.24 150.28 157.24 134.72 143.76 126.94 130.28 134.72 130.28 150.28 143.76 158.06 157.24 150.28"/>
      <polygon class="cls-1" points="65.51 100.23 65.51 88.01 54.93 81.91 44.35 88.01 44.35 100.23 54.93 106.34 65.51 100.23"/>
      <polygon class="cls-1" points="65.51 148.61 65.51 136.39 54.93 130.28 44.35 136.39 44.35 148.61 54.93 154.71 65.51 148.61"/>
      <polygon class="cls-1" points="17.68 122.27 17.68 112.06 8.84 106.96 0 112.06 0 122.27 8.84 127.38 17.68 122.27"/>
      <polygon class="cls-1" points="202.94 175.75 202.94 155.34 185.26 145.13 167.58 155.34 167.58 175.75 185.26 185.96 202.94 175.75"/>
      <polygon class="cls-1" points="116.5 77.13 116.5 60.45 102.06 52.12 87.62 60.45 87.62 77.13 102.06 85.47 116.5 77.13"/>
      <polygon class="cls-1" points="116.5 173.88 116.5 157.21 102.06 148.87 87.62 157.21 87.62 173.88 102.06 182.22 116.5 173.88"/>
      <polygon class="cls-1" points="114.18 124.17 114.18 110.17 102.06 103.17 89.94 110.17 89.94 124.17 102.06 131.16 114.18 124.17"/>
      <polygon class="cls-1" points="161.44 199.72 161.44 179.3 143.76 169.09 126.08 179.3 126.08 199.72 143.76 209.92 161.44 199.72"/>
      <polygon class="cls-1" points="69.43 51.99 69.43 35.24 54.93 26.87 40.43 35.24 40.43 51.99 54.93 60.36 69.43 51.99"/>
      <polygon class="cls-1" points="16.4 66.13 16.4 56.66 8.2 51.93 0 56.66 0 66.13 8.2 70.86 16.4 66.13"/>
      <polygon class="cls-1" points="119.15 224.13 119.15 203.72 101.47 193.51 83.79 203.72 83.79 224.13 101.47 234.34 119.15 224.13"/>
      <polygon class="cls-1" points="69.43 199.09 69.43 182.35 54.93 173.97 40.43 182.35 40.43 199.09 54.93 207.47 69.43 199.09"/>
      <polygon class="cls-1" points="23.06 177.47 23.06 164.15 11.53 157.49 0 164.15 0 177.47 11.53 184.13 23.06 177.47"/>
    </g>
  </g>
</svg>
