<svg id="Capa_1" data-name="Capa 1" xmlns="http://www.w3.org/2000/svg" viewBox="0 0 379 141.6">
  <defs>
    <style>
      .cls-1 {
        fill: #22231e;
      }
    </style>
  </defs>
  <title>logo_vertical</title>
  <g>
    <g>
      <g>
        <path class="cls-1" d="M166.28,82.85a11.47,11.47,0,0,1-3.59-.51,7.12,7.12,0,0,1-2.57-1.42,7,7,0,0,1-1.65-2.26,10.9,10.9,0,0,1-.89-2.89,21.4,21.4,0,0,1-.26-3.48v-11a22.13,22.13,0,0,1,.27-3.63,11.54,11.54,0,0,1,.89-2.94,6.47,6.47,0,0,1,1.64-2.23,7.28,7.28,0,0,1,2.56-1.37,11.85,11.85,0,0,1,3.59-.49,11.49,11.49,0,0,1,4,.63,6,6,0,0,1,2.64,1.84,7.7,7.7,0,0,1,1.4,2.84,14.65,14.65,0,0,1,.44,3.78v2.69h-5.52V59.77A13.12,13.12,0,0,0,169,56.6a2.4,2.4,0,0,0-2.41-1.71h-0.3a4.2,4.2,0,0,0-1.26.17,2,2,0,0,0-.88.54,3.41,3.41,0,0,0-.55.79,3.75,3.75,0,0,0-.31,1.09,12.07,12.07,0,0,0-.13,1.24q0,0.57,0,1.44V73.48a8.23,8.23,0,0,0,.69,3.95,2.63,2.63,0,0,0,2.48,1.18,3.67,3.67,0,0,0,1.07-.14,2.77,2.77,0,0,0,.78-0.36,1.74,1.74,0,0,0,.53-0.63,4.75,4.75,0,0,0,.33-0.76,4.68,4.68,0,0,0,.17-1q0.06-.63.07-1.06t0-1.19V70.67h5.52v2.58a18.45,18.45,0,0,1-.25,3.17,10,10,0,0,1-.84,2.64,6.25,6.25,0,0,1-1.55,2,6.8,6.8,0,0,1-2.43,1.28A11.47,11.47,0,0,1,166.28,82.85Z" transform="translate(-12.98 -7.68)"/>
        <path class="cls-1" d="M187.3,82.85q-4.86,0-7-2.64t-2.11-7.72V60.89a17.57,17.57,0,0,1,.47-4.34,8.59,8.59,0,0,1,1.53-3.19,6.36,6.36,0,0,1,2.82-2,11.94,11.94,0,0,1,4.25-.67q4.84,0,7,2.6t2.11,7.63V72.49a17.4,17.4,0,0,1-.48,4.33,9,9,0,0,1-1.54,3.24,6.46,6.46,0,0,1-2.82,2.08A11.45,11.45,0,0,1,187.3,82.85Zm-1.43-4.5a3.74,3.74,0,0,0,1.43.25,3.67,3.67,0,0,0,1.42-.25,2.52,2.52,0,0,0,.94-0.65,2.81,2.81,0,0,0,.55-1,6.69,6.69,0,0,0,.27-1.29,15.36,15.36,0,0,0,.07-1.54V59.56a13.17,13.17,0,0,0-.11-1.9,4.86,4.86,0,0,0-.45-1.43,2.17,2.17,0,0,0-1-1,3.78,3.78,0,0,0-1.69-.33,3.84,3.84,0,0,0-1.7.33,2.11,2.11,0,0,0-1,1,5,5,0,0,0-.44,1.43,13.1,13.1,0,0,0-.11,1.9V73.84a15.22,15.22,0,0,0,.07,1.54,6.65,6.65,0,0,0,.27,1.29,2.9,2.9,0,0,0,.54,1A2.42,2.42,0,0,0,185.87,78.36Z" transform="translate(-12.98 -7.68)"/>
        <path class="cls-1" d="M200.56,82.47V51h3.95l7.7,17.81V51h4.74V82.47h-3.76l-7.78-18.72V82.47h-4.86Z" transform="translate(-12.98 -7.68)"/>
        <path class="cls-1" d="M229.58,82.85q-8.31,0-8.73-9.6l5-1q0.19,6.24,3.57,6.24a2.34,2.34,0,0,0,1.94-.8,3.34,3.34,0,0,0,.64-2.14,6,6,0,0,0-.47-2.4,6.52,6.52,0,0,0-1.1-1.78,23.63,23.63,0,0,0-1.78-1.72L224.5,66a11.54,11.54,0,0,1-2.71-3.31,9.26,9.26,0,0,1-.89-4.3A7.44,7.44,0,0,1,223,52.73,8.4,8.4,0,0,1,229,50.66a9.28,9.28,0,0,1,3.05.43,6.43,6.43,0,0,1,2.19,1.2,6.23,6.23,0,0,1,1.44,1.87,10.15,10.15,0,0,1,.86,2.32,17.65,17.65,0,0,1,.4,2.68l-4.89,1q0-.95-0.12-1.65a9.07,9.07,0,0,0-.29-1.42,3.65,3.65,0,0,0-.54-1.17,2.33,2.33,0,0,0-.89-0.71,2.53,2.53,0,0,0-1.3-.21,2.67,2.67,0,0,0-1.94.84,3,3,0,0,0-.67,2.06,4.71,4.71,0,0,0,.6,2.49,9.63,9.63,0,0,0,1.87,2.1L232.8,66a21.65,21.65,0,0,1,1.78,1.8,15.33,15.33,0,0,1,1.45,2,9.19,9.19,0,0,1,1.05,2.47,11,11,0,0,1,.36,2.85,7.49,7.49,0,0,1-2.17,5.58A7.76,7.76,0,0,1,229.58,82.85Z" transform="translate(-12.98 -7.68)"/>
        <path class="cls-1" d="M243.88,82.47V55.25h-5.27V51h16.11v4.23h-5.1V82.47h-5.73Z" transform="translate(-12.98 -7.68)"/>
        <path class="cls-1" d="M257.22,82.47V51h7.21a19.38,19.38,0,0,1,4.27.41,8.39,8.39,0,0,1,3.1,1.37,5.77,5.77,0,0,1,2,2.6,10.85,10.85,0,0,1,.65,4,11.43,11.43,0,0,1-.88,4.84A5.39,5.39,0,0,1,270.63,67L275,82.47h-5.75l-3.76-14.36h-2.54V82.47h-5.73Zm5.73-18h1.38a5,5,0,0,0,3.61-1.08,5.16,5.16,0,0,0,1.07-3.7,5.57,5.57,0,0,0-.93-3.61Q267.16,55,264.67,55h-1.73v9.48Z" transform="translate(-12.98 -7.68)"/>
        <path class="cls-1" d="M287.38,82.85a12.07,12.07,0,0,1-3.65-.49A6.88,6.88,0,0,1,281.18,81a6.38,6.38,0,0,1-1.59-2.29,12.05,12.05,0,0,1-.83-3,26.31,26.31,0,0,1-.24-3.77V51h5.56V72.49q0,1.1.06,1.88a11.3,11.3,0,0,0,.25,1.63,3.9,3.9,0,0,0,.54,1.37,2.77,2.77,0,0,0,1,.85,3.42,3.42,0,0,0,3,0,2.6,2.6,0,0,0,.95-0.85,4.32,4.32,0,0,0,.53-1.37,9.89,9.89,0,0,0,.25-1.62q0-.77,0-1.89V51h5.56V71.91a26.46,26.46,0,0,1-.24,3.77,12.05,12.05,0,0,1-.83,3A6.46,6.46,0,0,1,293.54,81,6.79,6.79,0,0,1,291,82.36,12,12,0,0,1,287.38,82.85Z" transform="translate(-12.98 -7.68)"/>
        <path class="cls-1" d="M309.1,82.85a11.47,11.47,0,0,1-3.58-.51,7.12,7.12,0,0,1-2.57-1.42,7,7,0,0,1-1.65-2.26,10.92,10.92,0,0,1-.89-2.89,21.52,21.52,0,0,1-.26-3.48v-11a22.18,22.18,0,0,1,.27-3.63,11.54,11.54,0,0,1,.89-2.94,6.45,6.45,0,0,1,1.64-2.23,7.28,7.28,0,0,1,2.56-1.37,11.86,11.86,0,0,1,3.59-.49,11.48,11.48,0,0,1,4,.63,6,6,0,0,1,2.64,1.84,7.69,7.69,0,0,1,1.4,2.84,14.69,14.69,0,0,1,.44,3.78v2.69h-5.52V59.77a13.06,13.06,0,0,0-.25-3.17,2.4,2.4,0,0,0-2.41-1.71h-0.3a4.2,4.2,0,0,0-1.26.17,2,2,0,0,0-.88.54,3.39,3.39,0,0,0-.55.79,3.73,3.73,0,0,0-.31,1.09,12.07,12.07,0,0,0-.13,1.24q0,0.57,0,1.44V73.48a8.23,8.23,0,0,0,.69,3.95,2.63,2.63,0,0,0,2.48,1.18,3.67,3.67,0,0,0,1.07-.14A2.78,2.78,0,0,0,311,78.1a1.76,1.76,0,0,0,.53-0.63,3.82,3.82,0,0,0,.5-1.74q0.06-.63.07-1.06t0-1.19V70.67h5.52v2.58a18.45,18.45,0,0,1-.25,3.17,10,10,0,0,1-.84,2.64,6.23,6.23,0,0,1-1.55,2,6.79,6.79,0,0,1-2.43,1.28A11.47,11.47,0,0,1,309.1,82.85Z" transform="translate(-12.98 -7.68)"/>
        <path class="cls-1" d="M330,82.85a11.47,11.47,0,0,1-3.58-.51,7.12,7.12,0,0,1-2.57-1.42,7,7,0,0,1-1.65-2.26,10.92,10.92,0,0,1-.89-2.89,21.52,21.52,0,0,1-.26-3.48v-11a22.18,22.18,0,0,1,.27-3.63,11.54,11.54,0,0,1,.89-2.94,6.45,6.45,0,0,1,1.64-2.23,7.28,7.28,0,0,1,2.56-1.37,11.86,11.86,0,0,1,3.59-.49,11.48,11.48,0,0,1,4,.63,6,6,0,0,1,2.64,1.84,7.69,7.69,0,0,1,1.4,2.84,14.69,14.69,0,0,1,.44,3.78v2.69H333V59.77a13.06,13.06,0,0,0-.25-3.17,2.4,2.4,0,0,0-2.41-1.71H330a4.2,4.2,0,0,0-1.26.17,2,2,0,0,0-.88.54,3.39,3.39,0,0,0-.55.79,3.73,3.73,0,0,0-.31,1.09,12.07,12.07,0,0,0-.13,1.24q0,0.57,0,1.44V73.48a8.23,8.23,0,0,0,.69,3.95A2.63,2.63,0,0,0,330,78.6a3.67,3.67,0,0,0,1.07-.14,2.78,2.78,0,0,0,.78-0.36,1.76,1.76,0,0,0,.53-0.63,3.82,3.82,0,0,0,.5-1.74q0.06-.63.07-1.06t0-1.19V70.67h5.52v2.58a18.45,18.45,0,0,1-.25,3.17,10,10,0,0,1-.84,2.64,6.23,6.23,0,0,1-1.55,2,6.79,6.79,0,0,1-2.43,1.28A11.47,11.47,0,0,1,330,82.85Z" transform="translate(-12.98 -7.68)"/>
        <path class="cls-1" d="M342.63,82.47V51h5.65V82.47h-5.65Z" transform="translate(-12.98 -7.68)"/>
        <path class="cls-1" d="M361.68,82.85q-4.86,0-7-2.64t-2.11-7.72V60.89a17.54,17.54,0,0,1,.47-4.34,8.58,8.58,0,0,1,1.53-3.19,6.37,6.37,0,0,1,2.82-2,11.94,11.94,0,0,1,4.25-.67q4.84,0,7,2.6t2.12,7.63V72.49a17.35,17.35,0,0,1-.48,4.33,9,9,0,0,1-1.54,3.24,6.47,6.47,0,0,1-2.82,2.08A11.45,11.45,0,0,1,361.68,82.85Zm-1.43-4.5a3.75,3.75,0,0,0,1.43.25,3.67,3.67,0,0,0,1.42-.25,2.53,2.53,0,0,0,.94-0.65,2.81,2.81,0,0,0,.55-1,6.72,6.72,0,0,0,.26-1.29,15.08,15.08,0,0,0,.07-1.54V59.56a13.11,13.11,0,0,0-.11-1.9,4.85,4.85,0,0,0-.45-1.43,2.16,2.16,0,0,0-1-1,3.78,3.78,0,0,0-1.69-.33,3.84,3.84,0,0,0-1.7.33,2.11,2.11,0,0,0-1,1,5,5,0,0,0-.44,1.43,13.09,13.09,0,0,0-.11,1.9V73.84a15.36,15.36,0,0,0,.07,1.54,6.73,6.73,0,0,0,.27,1.29,2.9,2.9,0,0,0,.54,1A2.42,2.42,0,0,0,360.25,78.36Z" transform="translate(-12.98 -7.68)"/>
        <path class="cls-1" d="M374.94,82.47V51h3.95l7.7,17.81V51h4.74V82.47h-3.76l-7.78-18.72V82.47h-4.86Z" transform="translate(-12.98 -7.68)"/>
      </g>
      <g>
        <path class="cls-1" d="M357.2,104.69L360.51,89h1.56l3.34,15.73H364l-0.78-4.2h-3.76l-0.8,4.2H357.2Zm2.44-5.28H363l-1.68-8.48Z" transform="translate(-12.98 -7.68)"/>
        <path class="cls-1" d="M371.18,104.69V89H375a4.8,4.8,0,0,1,1.77.29,2.65,2.65,0,0,1,1.17.86,3.64,3.64,0,0,1,.62,1.3,6.93,6.93,0,0,1,.19,1.71,5.87,5.87,0,0,1-.2,1.6,3.89,3.89,0,0,1-.63,1.3,2.86,2.86,0,0,1-1.17.9,4.26,4.26,0,0,1-1.72.32h-2.3v7.45h-1.49Zm1.49-8.55h1.89a2.73,2.73,0,0,0,2.07-.67,3.43,3.43,0,0,0,.62-2.34,3.88,3.88,0,0,0-.55-2.44,2.77,2.77,0,0,0-2.12-.63h-1.91v6.08Z" transform="translate(-12.98 -7.68)"/>
        <path class="cls-1" d="M384.46,104.69V89h3.77a4.8,4.8,0,0,1,1.77.29,2.65,2.65,0,0,1,1.17.86,3.64,3.64,0,0,1,.62,1.3,6.93,6.93,0,0,1,.19,1.71,5.87,5.87,0,0,1-.2,1.6,3.89,3.89,0,0,1-.63,1.3,2.86,2.86,0,0,1-1.17.9,4.26,4.26,0,0,1-1.72.32h-2.3v7.45h-1.49Zm1.49-8.55h1.89a2.73,2.73,0,0,0,2.07-.67,3.43,3.43,0,0,0,.62-2.34A3.88,3.88,0,0,0,390,90.7a2.77,2.77,0,0,0-2.12-.63h-1.91v6.08Z" transform="translate(-12.98 -7.68)"/>
      </g>
    </g>
    <g>
      <polygon class="cls-1" points="72 18.5 72 6.17 61.31 0 50.63 6.17 50.63 18.5 61.31 24.67 72 18.5"/>
      <polygon class="cls-1" points="97.55 33.26 97.55 20.92 86.87 14.75 76.19 20.92 76.19 33.26 86.87 39.42 97.55 33.26"/>
      <polygon class="cls-1" points="122.63 47.74 122.63 35.4 111.95 29.23 101.26 35.4 101.26 47.74 111.95 53.9 122.63 47.74"/>
      <polygon class="cls-1" points="122.63 76.97 122.63 64.63 111.95 58.47 101.26 64.63 101.26 76.97 111.95 83.14 122.63 76.97"/>
      <polygon class="cls-1" points="95.01 61.58 95.01 52.17 86.87 47.47 78.72 52.17 78.72 61.58 86.87 66.28 95.01 61.58"/>
      <polygon class="cls-1" points="95.01 90.81 95.01 81.4 86.87 76.7 78.72 81.4 78.72 90.81 86.87 95.51 95.01 90.81"/>
      <polygon class="cls-1" points="39.58 60.56 39.58 53.18 33.19 49.49 26.8 53.18 26.8 60.56 33.19 64.25 39.58 60.56"/>
      <polygon class="cls-1" points="39.58 89.8 39.58 82.42 33.19 78.72 26.8 82.42 26.8 89.8 33.19 93.49 39.58 89.8"/>
      <polygon class="cls-1" points="10.68 73.89 10.68 67.72 5.34 64.63 0 67.72 0 73.89 5.34 76.97 10.68 73.89"/>
      <polygon class="cls-1" points="122.63 106.2 122.63 93.86 111.95 87.7 101.26 93.86 101.26 106.2 111.95 112.37 122.63 106.2"/>
      <polygon class="cls-1" points="70.4 46.61 70.4 36.53 61.67 31.49 52.95 36.53 52.95 46.61 61.67 51.65 70.4 46.61"/>
      <polygon class="cls-1" points="70.4 105.07 70.4 94.99 61.67 89.96 52.95 94.99 52.95 105.07 61.67 110.11 70.4 105.07"/>
      <polygon class="cls-1" points="69 75.03 69 66.57 61.67 62.34 54.35 66.57 54.35 75.03 61.67 79.26 69 75.03"/>
      <polygon class="cls-1" points="97.55 120.68 97.55 108.34 86.87 102.18 76.19 108.34 76.19 120.68 86.87 126.85 97.55 120.68"/>
      <polygon class="cls-1" points="41.95 31.42 41.95 21.3 33.19 16.24 24.43 21.3 24.43 31.42 33.19 36.48 41.95 31.42"/>
      <polygon class="cls-1" points="9.91 39.96 9.91 34.24 4.96 31.38 0 34.24 0 39.96 4.96 42.82 9.91 39.96"/>
      <polygon class="cls-1" points="72 135.43 72 123.1 61.31 116.93 50.63 123.1 50.63 135.43 61.31 141.6 72 135.43"/>
      <polygon class="cls-1" points="41.95 120.3 41.95 110.19 33.19 105.13 24.43 110.19 24.43 120.3 33.19 125.36 41.95 120.3"/>
      <polygon class="cls-1" points="13.94 107.24 13.94 99.19 6.97 95.17 0 99.19 0 107.24 6.97 111.26 13.94 107.24"/>
    </g>
  </g>
</svg>
